<?xml version="1.0" encoding="UTF-8"?>
<svg width="54px" height="29px" viewBox="0 0 54 29" version="1.1" xmlns="http://www.w3.org/2000/svg" xmlns:xlink="http://www.w3.org/1999/xlink">
    <!-- Generator: sketchtool 62 (101010) - https://sketch.com -->
    <title>64FC76E6-C002-4CB3-AC7A-03CBF0B0A5CE</title>
    <desc>Created with sketchtool.</desc>
    <g id="Page-1" stroke="none" stroke-width="1" fill="none" fill-rule="evenodd">
        <g id="Assignment-2" transform="translate(-40.000000, -9.000000)" fill="#FFFFFF" fill-rule="nonzero">
            <g id="navbar">
                <g id="logo" transform="translate(40.000000, 9.000000)">
                    <path d="M36.739,16.937 C37.047,16.717 37.381,16.461 37.692,16.216 C40.088,14.299 41.918,12.198 42.281,11.036 C42.292,10.998 42.324,10.89 42.324,10.805 C42.324,10.685 42.267,10.601 42.158,10.601 C41.058,10.601 37.529,14.115 36.675,16.96 L36.675,16.97 L36.739,16.937 Z M27.893,16.533 C31.229,14.013 34.734,10.344 35.108,8.838 C35.119,8.789 35.13,8.741 35.1290634,8.695 C35.124,8.595 35.07,8.507 34.944,8.507 C33.888,8.507 28.999,13.016 27.893,16.533 M7.41,18.748 C6.529,18.137 5.167,17.603 3.95,17.603 C2.77,17.603 2.014,18.067 2.014,18.652 C2.014,19.323 2.93,19.617 3.956,19.617 C5.2,19.617 6.329,19.281 7.41,18.748 M17.629,10.843 C20.021,10.076 22.289,8.473 23.982,6.799 C25.545,5.25 26.797,3.411 26.797,2.5 C26.797,2.292 26.649,2.167 26.459,2.167 C25.736,2.167 24.362,3.128 22.513,4.979 C21.074,6.422 19.397,8.392 17.629,10.843 M53.229,16.625 C51.175,18.669 44.775,24.287 43.081,29.014 L40.983,28.473 C41.669,26.515 43.734,23.47 46.035,21.121 C45.545,21.305 45.035,21.374 44.625,21.374 C44.0029962,21.374 43.52,21.186 43.229,20.834 C43.021,20.58 42.915,20.249 42.915,19.855 C42.915,19.769 42.921,19.683 42.933,19.586 C40.912,20.817 39.287,21.373 37.695,21.373 C36.456,21.373 35.413,20.833 34.93,19.886 C32.924,20.881 31,21.373 29.392,21.373 C27.895,21.373 26.688,20.78 26.134,19.7 C24.106,20.84 22.38,21.373 21.007,21.373 C20.217,21.373 19.59,21.154 19.188,20.739 C18.892,20.433 18.736,20.022 18.713,19.547 C17.413,20.404 15.513,21.373 13.566,21.373 C11.574,21.373 10.238,20.689 9.201,20.011 C7.547,20.927 5.727,21.373 3.803,21.373 C2.349,21.373 0.00299616187,20.768 0.00299616187,18.683 C-6.85649454e-16,17 1.756,15.86 4.106,15.86 C6.104,15.86 8.029,16.702 9.237,17.576 C10.383,16.663 11.586,15.386 13.005,13.581 C12.693,13.599 12.388,13.607 12.088,13.607 C9.371,13.607 7.102,12.806 5.863,11.404 C5.194,10.646 4.877,9.757 4.877,8.8 C4.877,5.02 9.652,2.087 13.829,1.655 C14.105,2.281 14.351,2.763 14.606,3.336 C10.48,3.816 7.043,6.258 7.043,8.645 C7.043,10.214 8.806,11.79 12.549,11.79 C13.19,11.79 13.834,11.728 14.468,11.641 C17.772,7.081 22.834,0 27.191,0 C28.48,0 29.154,0.784 29.154,1.832 C29.154,3.988 27.299,6.309 26.091,7.52 C24.193,9.427 20.759,12.265 15.964,13.205 C14.099,15.8 12.566,17.521 11.032,18.764 C11.961,19.265 12.833,19.573 13.872,19.573 C16.453,19.573 18.957,17.211 20.912,15.208 L20.981,15.141 L22.505,16.333 L22.435,16.417 C21.571,17.408 20.774,18.456 20.774,19.043 C20.774,19.488 21.151,19.576 21.474,19.576 C22.462,19.576 23.986,18.936 25.779,17.834 L25.779,17.819 C25.977,13.389 32.023,6.614 35.693,6.614 C36.729,6.614 37.324,7.13 37.324,8.034 C37.324,10.255 33.493,15.016 27.92,18.66 L27.92,18.663 C28.208,19.283 28.872,19.582 29.999,19.582 C30.878,19.582 32.598,19.19 34.642,18.122 C34.878,15.827 36.179,13.362 37.829,11.605 C39.484,9.846 41.339,8.703 42.943,8.703 C43.932,8.703 44.516,9.247 44.516,10.102 C44.516,12.039 42.267,15.351 36.849,18.819 C37.089,19.283 37.554,19.576 38.278,19.576 C39.892,19.576 42.735,17.854 44.949,15.737 L46.539,16.971 C45.86,17.795 45.173,18.7 45.195,19.221 C45.201,19.39 45.315,19.504 45.582,19.504 C47.214,19.504 49.783,17.349 51.709,15.447 L53.229,16.625 M23.688,12.182 C24.409,12.182 24.991,12.767 24.991,13.487 C24.991,14.208 24.409,14.792 23.688,14.792 C22.964,14.792 22.38,14.208 22.38,13.487 C22.381,12.767 22.965,12.182 23.688,12.182" id="Shape"></path>
                </g>
            </g>
        </g>
    </g>
</svg>